<svg id="visual" viewBox="0 0 960 540" width="960" height="540" xmlns="http://www.w3.org/2000/svg" xmlns:xlink="http://www.w3.org/1999/xlink" version="1.1"><rect x="0" y="0" width="960" height="540" fill="#001220"></rect><path d="M0 387L22.8 378.5C45.7 370 91.3 353 137 354.7C182.7 356.3 228.3 376.7 274 376.2C319.7 375.7 365.3 354.3 411.2 344.2C457 334 503 335 548.8 341.8C594.7 348.7 640.3 361.3 686 365.7C731.7 370 777.3 366 823 367.2C868.7 368.3 914.3 374.7 937.2 377.8L960 381L960 541L937.2 541C914.3 541 868.7 541 823 541C777.3 541 731.7 541 686 541C640.3 541 594.7 541 548.8 541C503 541 457 541 411.2 541C365.3 541 319.7 541 274 541C228.3 541 182.7 541 137 541C91.3 541 45.7 541 22.8 541L0 541Z" fill="#fa7268"></path><path d="M0 398L22.8 390.5C45.7 383 91.3 368 137 364.5C182.7 361 228.3 369 274 379.3C319.7 389.7 365.3 402.3 411.2 404.2C457 406 503 397 548.8 396C594.7 395 640.3 402 686 404.2C731.7 406.3 777.3 403.7 823 395.8C868.7 388 914.3 375 937.2 368.5L960 362L960 541L937.2 541C914.3 541 868.7 541 823 541C777.3 541 731.7 541 686 541C640.3 541 594.7 541 548.8 541C503 541 457 541 411.2 541C365.3 541 319.7 541 274 541C228.3 541 182.7 541 137 541C91.3 541 45.7 541 22.8 541L0 541Z" fill="#ef5f67"></path><path d="M0 455L22.8 446.2C45.7 437.3 91.3 419.7 137 418C182.7 416.3 228.3 430.7 274 432.2C319.7 433.7 365.3 422.3 411.2 423C457 423.7 503 436.3 548.8 436.5C594.7 436.7 640.3 424.3 686 422.8C731.7 421.3 777.3 430.7 823 427.5C868.7 424.3 914.3 408.7 937.2 400.8L960 393L960 541L937.2 541C914.3 541 868.7 541 823 541C777.3 541 731.7 541 686 541C640.3 541 594.7 541 548.8 541C503 541 457 541 411.2 541C365.3 541 319.7 541 274 541C228.3 541 182.7 541 137 541C91.3 541 45.7 541 22.8 541L0 541Z" fill="#e34c67"></path><path d="M0 435L22.8 439C45.7 443 91.3 451 137 459.8C182.7 468.7 228.3 478.3 274 480C319.7 481.7 365.3 475.3 411.2 467C457 458.7 503 448.3 548.8 444.7C594.7 441 640.3 444 686 450.5C731.7 457 777.3 467 823 469C868.7 471 914.3 465 937.2 462L960 459L960 541L937.2 541C914.3 541 868.7 541 823 541C777.3 541 731.7 541 686 541C640.3 541 594.7 541 548.8 541C503 541 457 541 411.2 541C365.3 541 319.7 541 274 541C228.3 541 182.7 541 137 541C91.3 541 45.7 541 22.8 541L0 541Z" fill="#d53867"></path><path d="M0 477L22.8 478.5C45.7 480 91.3 483 137 488.5C182.7 494 228.3 502 274 505C319.7 508 365.3 506 411.2 507C457 508 503 512 548.8 511.3C594.7 510.7 640.3 505.3 686 503.5C731.7 501.7 777.3 503.3 823 499.5C868.7 495.7 914.3 486.3 937.2 481.7L960 477L960 541L937.2 541C914.3 541 868.7 541 823 541C777.3 541 731.7 541 686 541C640.3 541 594.7 541 548.8 541C503 541 457 541 411.2 541C365.3 541 319.7 541 274 541C228.3 541 182.7 541 137 541C91.3 541 45.7 541 22.8 541L0 541Z" fill="#c62368"></path></svg>